<?xml version="1.0" encoding="utf-8"?>
<!-- Generator: Adobe Illustrator 19.0.0, SVG Export Plug-In . SVG Version: 6.00 Build 0)  -->
<svg version="1.1" id="Layer_1" xmlns="http://www.w3.org/2000/svg" xmlns:xlink="http://www.w3.org/1999/xlink" x="0px" y="0px"
	 viewBox="0 0 1200 1200" style="enable-background:new 0 0 1200 1200;" xml:space="preserve">
<style type="text/css">
	.st0{clip-path:url(#SVGID_2_);fill-rule:evenodd;clip-rule:evenodd;fill:#AADAF1;}
	.st1{clip-path:url(#SVGID_2_);fill:none;stroke:#72A5BD;stroke-width:2;stroke-linecap:round;stroke-linejoin:round;}
	.st2{clip-path:url(#SVGID_2_);fill-rule:evenodd;clip-rule:evenodd;fill:#F77F89;}
	.st3{clip-path:url(#SVGID_2_);fill-rule:evenodd;clip-rule:evenodd;fill:#6367FD;}
	.st4{clip-path:url(#SVGID_2_);fill-rule:evenodd;clip-rule:evenodd;fill:#C4C4C4;}
	.st5{clip-path:url(#SVGID_2_);fill:none;stroke:#CB5D66;stroke-width:2;stroke-linecap:round;stroke-linejoin:round;}
	.st6{clip-path:url(#SVGID_2_);fill-rule:evenodd;clip-rule:evenodd;fill:#F7D167;}
	.st7{clip-path:url(#SVGID_2_);fill-rule:evenodd;clip-rule:evenodd;}
	.st8{clip-path:url(#SVGID_2_);fill-rule:evenodd;clip-rule:evenodd;fill:#FFFFFF;}
	.st9{clip-path:url(#SVGID_2_);fill:none;stroke:#FFFFFF;stroke-width:2;stroke-linecap:round;stroke-linejoin:round;}
	.st10{clip-path:url(#SVGID_2_);fill-rule:evenodd;clip-rule:evenodd;fill:#CB5D66;}
	.st11{clip-path:url(#SVGID_2_);fill:none;stroke:#8D8D8D;stroke-width:2;stroke-linecap:round;stroke-linejoin:round;}
	.st12{clip-path:url(#SVGID_2_);fill:none;stroke:#FF3274;stroke-width:2;stroke-linecap:round;stroke-linejoin:round;}
	.st13{clip-path:url(#SVGID_2_);fill:none;stroke:#C9C9C9;stroke-width:2;stroke-linecap:round;stroke-linejoin:round;}
</style>
<g>
	<defs>
		<rect id="SVGID_1_" width="1200" height="1200"/>
	</defs>
	<clipPath id="SVGID_2_">
		<use xlink:href="#SVGID_1_"  style="overflow:visible;"/>
	</clipPath>
	<path class="st0" d="M834.3,647.1c-55.7-0.8-83.2,200.2-78.5,214.7c1.1,3.3,3.6,6.9,6.9,10.3h48.9c7.4-15.8,18-48,26.3-83.6
		l-14-7.8l17.7-8.9c3.9-18.8,6.9-37.9,8.2-55.5l-13.7-3.2l7.6-10.9l-8.7-2l14.8-16.1C848.3,666.7,843.7,653.1,834.3,647.1"/>
	<line class="st1" x1="834.2" y1="647.1" x2="783.5" y2="872.2"/>
	<path class="st0" d="M733.6,599c-68,25.3-20.8,248.4-7.2,272.5h71.9c0.1-0.2,0.3-0.3,0.3-0.5c8-16.3,6.1-126.4-15.6-201.5
		l-17.9,0.4l12.2-17.8C766.7,623,752.5,601.7,733.6,599"/>
	<line class="st1" x1="672.2" y1="872.2" x2="867.1" y2="872.2"/>
	<line class="st1" x1="733.4" y1="599.1" x2="766.4" y2="871.6"/>
	<path class="st2" d="M722.5,843.2c7,5.1,28.2,22.2,29.3,26.9c1.1,4.7-10.4,35.6-12.9,37.9c-2.5,2.2-27.1,8.2-28.2,9.8
		c-1.2,1.6-0.2,6.4,0.9,8.8c1.2,2.4,38.8-0.3,38.8-0.3s48.8-48.2,48.2-51.8c-0.6-3.6-55.4-53-55.4-53S715.5,838.2,722.5,843.2"/>
	<path class="st3" d="M776.7,852.4c-1.9,12.6-8.5,31.7-29.2,35.4c-3.2,9.4-7.2,19-8.5,20.2c-2.5,2.2-27,8.2-28.2,9.8
		c-1.2,1.6-0.2,6.4,0.9,8.8c1.2,2.4,38.8-0.3,38.8-0.3s48.8-48.2,48.2-51.8C798.3,873,788,863,776.7,852.4"/>
	<path class="st2" d="M480.3,885.7c-2.5,6.5-29.1,69.5-31.9,70.9c-2.8,1.4-81.6-37.1-82.2-40.9c-0.6-3.8,3-11.8,5.8-11.3
		c30.1,6,66.7,8,70.7,0.5c4-7.6,9.1-25.2,9.1-25.2S482.8,879.1,480.3,885.7"/>
	<path class="st3" d="M372,904.4c-2.9-0.6-6.5,7.5-5.8,11.3c0.6,3.8,79.4,42.2,82.2,40.9c1.3-0.6,7.4-13.9,13.8-28.5
		c-24.3,3.7-37.2-7.7-42.7-18.4C405.7,909.6,388,907.6,372,904.4"/>
	<path class="st4" d="M554.7,704.3C635,803.9,713.1,857,713.1,857l41.6-42l-120-139.6c0,0,9.8-107.8-11-127.5
		C602.8,528,504.2,641.7,554.7,704.3"/>
	<path class="st4" d="M520.8,541.4l-82.4,336.8l44.7,22c0,0,74.8-197,85.9-209c22.8-24.6,59.7-113.3,56.5-147.6
		C622.2,509.2,520.8,541.4,520.8,541.4"/>
	<path class="st2" d="M664.4,564.9c1.9,6.4,8.1,19.6,2.2,43.3c11.2,17.2,6,29.4-19.6,32.4c-4.3-5.2-8.6-8.7-13.4-16.3
		c-1.6-6.8-1.4-17.3-1.6-20.1c-0.3-5.7,11.4-31.1,9.3-41.3C639.2,552.7,662.5,558.5,664.4,564.9"/>
	<path class="st5" d="M668.4,632.6c-2.5-2.8-5.3-6-7.1-9.2"/>
	<path class="st5" d="M657.4,638.6c-4.2-4.1-10.3-12.6-13.5-17.8"/>
	<path class="st2" d="M451.9,539.6c-5.3,4.3-10.8,9.4-17.9,12.1c-10.6,2.6-30,23.8-30,28.4c0,4.3,3.9,5.8,6.3,6
		c2.1,0.1,6.5-4.7,7.6-6c-1.9,4.4-3.1,10.4-0.9,12.2c2.1,1.9,5.2,2.5,7.3,0.1c3.5-4,2.6-8.5,2.9-11.2c1.7-3.3,6.3-10.5,8.3-11.4
		c1.4,0.1,3.4,0.5,3.8,2.7c0.4,2.2-4.7,7.1-5.3,9.1c0,2.6,2.8,5.9,5.3,5.2c2.8-0.7,11.4-9.1,13.3-11.4c2.6-3.1,3.7-9.8,5.1-12
		s6.7-7,7.7-8C466.3,554.6,457.2,535.3,451.9,539.6"/>
	<path class="st5" d="M438.1,570.6c-6.3-5.2-16.1,5.5-20.6,9.8"/>
	<path class="st6" d="M534.5,368.2c-20.6,19.7-30.7,69-36.2,100.7c-18.1,17.8-54.5,57.1-54.4,66.6c0,9.5,17.8,25.2,22.3,25.1
		c4.5-0.1,46.6-46.1,53.1-51.5C525.9,503.8,539.4,363.5,534.5,368.2"/>
	<path class="st7" d="M526.9,287.2c-2.8-2.5-7.5-3.5-7.5-17.2c0-14.6,17.4-27.8,39.6-27.8c34.8,0,44.9,30.5,46.1,41.3
		s-0.7,36.3,1.7,46.7c4.9,21.2,25.3,37.6,25.3,73.1c0,10.8-46.8,1.4-55.1,0.2c-8.4-1.3-18.1-56.8-18.1-56.8S529.6,289.7,526.9,287.2
		"/>
	<path class="st2" d="M580,319.9c-1.7,6.7-1.9,35.6-0.7,45.2c-5.7,4.1-26.8,3.6-31.2-0.8c1.3-11.9,1.3-22.5,0-27.6
		C546.8,331.5,581.7,313.1,580,319.9"/>
	<path class="st2" d="M517.7,298.7c0-23.1,16.7-41.8,37.3-41.8s37.3,18.7,37.3,41.8c0,23.1-16.7,41.8-37.3,41.8
		S517.7,321.8,517.7,298.7"/>
	<path class="st8" d="M562.4,338.3c-0.5-7.1-6.4-22.6-9.5-24.5c-3.1-1.9-27.1-4.7-35.2-16.7c-4.1,3.4-7.5,9.7-7.1,11
		c0.7,2.7,7.1,7.3,7.1,7.3s1.5,17.4,14,25.1C540.8,346.2,558.7,341.6,562.4,338.3"/>
	<path class="st9" d="M552.1,316.1c4.2-7,15.4-16.2,21.4-18.7"/>
	<path class="st9" d="M557.6,326.5c0,0,23.7,3.6,27.6-6.7"/>
	<path class="st7" d="M534.6,259.6c4.9,4.4,7,15.5,11.5,21c7.3,9,21.2,10.5,25.5,22.4c4.3,11.9,26.7,2.3,26.7,2.3l-2.9-28.2
		l-16.6-17.4l-25.9-7.4C553,252.3,529.7,255.1,534.6,259.6"/>
	<path class="st2" d="M565.2,309.1c0-7.9,6.4-14.3,14.3-14.3c7.9,0,14.3,6.4,14.3,14.3c0,7.9-6.4,14.3-14.3,14.3
		C571.6,323.4,565.2,317,565.2,309.1"/>
	<path class="st10" d="M534,295.8c0-2.9,1.3-5.2,2.8-5.2c1.6,0,2.8,2.3,2.8,5.2c0,2.9-1.3,5.2-2.8,5.2
		C535.2,301,534,298.7,534,295.8"/>
	<path class="st6" d="M564.1,349.4c61.2,0,103.9,116.1,108.3,133.7c4.4,17.6,1,81.8-0.6,86.7c-6.1,1.2-28-2.8-32.6-5.6
		c-4-6.7-5.5-57.3-7.1-61.9c-1.6-4.6-2.5-6.4-5.9-10.4c1.8,13.6-0.1,47.1-1.3,51.9c-1.2,4.9-96.2,4.6-103.4,1.6
		c-4.5-1.9-7.7-3.9-8.3-8.4c-1.1-7.5,2.1-12.5,1.2-18.8c-0.8-6.3-4.4-7.3-5.4-17.5c-1.1-10.7,6.1-25,3.7-35.6
		C500.2,409.3,530.2,349.4,564.1,349.4"/>
	<path class="st6" d="M550.9,349h26.3c1.6,0,2.8,1.8,2.8,4v10.9c0,2.2-1.3,4-2.8,4h-26.3c-1.6,0-2.8-1.8-2.8-4V353
		C548.1,350.8,549.4,349,550.9,349"/>
	<line class="st11" x1="448.4" y1="883" x2="546.9" y2="557.1"/>
	<line class="st11" x1="490.4" y1="881.1" x2="443.4" y2="857.8"/>
	<path class="st11" d="M542.7,706.8c-4.8,2.8-14.9,1.3-19.8-2"/>
	<line class="st11" x1="529.6" y1="678.7" x2="550.4" y2="698.4"/>
	<path class="st11" d="M558.9,710.4c4.7-10.3,8.2-17.3,10-19.3c20.3-22,51.9-94.8,56.2-134.7"/>
	<path class="st11" d="M727.1,842.8c0,0-134.5-128.4-140.8-133.4c-0.4-9-1-26.5-7.2-31.9"/>
	<path class="st11" d="M631.7,683.5c-4.3,3-11.7,13.5-12.2,19.6"/>
	<path class="st11" d="M626.8,679.4c-2.4,0.7-9.4,4.6-11.1,7.8"/>
	<polyline class="st11" points="627,673.7 618.3,673 603.8,667.6 	"/>
	<line class="st11" x1="626.7" y1="673.7" x2="618.7" y2="673.1"/>
	<line class="st11" x1="741.7" y1="799.8" x2="694.8" y2="843.4"/>
	<path class="st11" d="M514.6,567c0,0,34.8,6.3,56.3,3.4"/>
	<path class="st12" d="M518.6,547.2c-3-1.6-5-3.6-5.5-7.1c-1.1-7.5,2.1-12.5,1.2-18.8c-0.8-6.3-4.4-7.3-5.4-17.5
		c-1.1-10.7,6.1-25,3.7-35.6c-4.7-20.9-3.4-42.4,1.8-61.1"/>
	<path class="st12" d="M476.5,552.3c-3.7-2.1-22.4-19.2-26.9-28.4"/>
	<line class="st12" x1="471.6" y1="548.5" x2="461.9" y2="558.9"/>
	<line class="st12" x1="465.4" y1="543.7" x2="455.7" y2="554.1"/>
	<line class="st12" x1="459.3" y1="538.1" x2="450.2" y2="547.9"/>
	<line class="st12" x1="454.5" y1="531.7" x2="445.5" y2="541.3"/>
	<line class="st12" x1="673.4" y1="557" x2="636.5" y2="553"/>
	<line class="st12" x1="667.3" y1="556.4" x2="666.3" y2="573"/>
	<line class="st12" x1="658.1" y1="555.4" x2="656.6" y2="571.8"/>
	<line class="st12" x1="649" y1="554.4" x2="647.9" y2="570.1"/>
	<path class="st12" d="M675.4,514.2c-13.1,0-23.7-10.6-23.7-23.7c0-9.9,6.1-18.4,14.7-22"/>
	<path class="st12" d="M626.3,495c-3.3-5.4-41.5-65.6-43.4-68"/>
	<line class="st12" x1="574.2" y1="427.3" x2="582.9" y2="426.8"/>
	<line class="st12" x1="575.5" y1="437" x2="582.8" y2="426.8"/>
	<line class="st12" x1="581.6" y1="442.2" x2="582.7" y2="426.9"/>
	<line class="st12" x1="531.6" y1="521.3" x2="558.4" y2="508.1"/>
	<line class="st12" x1="558" y1="504.6" x2="522.6" y2="511.7"/>
	<line class="st12" x1="527" y1="506.3" x2="556.6" y2="486.8"/>
	<path class="st12" d="M564.7,367.8h-13.7c-1.6,0-2.8-1.8-2.8-4V353c0-2.2,1.3-4,2.8-4h26.3c0.9,0,1.6,0.5,2.1,1.4"/>
	<line class="st12" x1="555" y1="349" x2="555.2" y2="367.8"/>
	<polyline class="st12" points="562.8,349.3 562.9,358.4 563,368.1 	"/>
	<polyline class="st12" points="571.4,349.3 571.5,358.4 571.6,368.1 	"/>
	<line class="st9" x1="453.8" y1="946.5" x2="368" y2="908"/>
	<polyline class="st9" points="793.5,868.6 747.5,918.1 710.5,923 	"/>
	<path class="st0" d="M345,329.1c-6.3-2.7-5.6-17.7,1.2-23.5c6.7-5.8,23.7-10.8,30.4-28.7c2.4-4.9,9.7,2.2,11.5,14.4
		C389.1,320.1,358.9,335,345,329.1"/>
	<path class="st1" d="M375.2,294.3c-1,6.4-14.4,35.1-41.4,42.5"/>
	<path class="st13" d="M517.8,297.1c-4.1,3.4-7.5,9.7-7.1,11c0.7,2.7,7.1,7.3,7.1,7.3s1.5,17.4,14,25.1c4.4,2.7,10.9,3,16.8,2.3"/>
	<path class="st1" d="M800.3,865.5c5.1-24.5,3.3-103.8-10.8-169.7"/>
</g>
</svg>
